<svg xmlns="http://www.w3.org/2000/svg" viewBox="0 0 48 48" height="48" width="48"><circle fill="#FFF" cx="12" cy="12" r="10"/><path d="M12-.048C5.356-.048-.048 5.356-.048 12S5.356 24.048 12 24.048 24.048 18.644 24.048 12 18.644-.048 12-.048zm0 22c-5.487 0-9.952-4.465-9.952-9.952S6.513 2.048 12 2.048 21.952 6.513 21.952 12 17.487 21.952 12 21.952z"/><path d="M19 11h-6V5a1 1 0 1 0-2 0v6H5a1 1 0 1 0 0 2h6v6a1 1 0 1 0 2 0v-6h6a1 1 0 1 0 0-2zM29.738 28.324l-6.031-6.031a.999.999 0 1 0-1.414 1.414l6.031 6.031a.997.997 0 0 0 1.414 0 .999.999 0 0 0 0-1.414z"/></svg>
